/* XPM */
static char * barplot_selected_xpm[] = {
"20 20 4 1",
" 	c None",
".	c #7A9BBD",
"+	c #000000",
"@	c #FFFFFF",
"....................",
"....................",
"....................",
"...++++++++++++++...",
"...++++++++++++++...",
"...++++++++++++++...",
"...++++++++++++@+...",
"...+@+++++++++@@+...",
"...@@+++++++++@@+...",
"...@@+++++++++@@@...",
"...@@@++@+++++@@@...",
"...@@@@@@+@++@@@@...",
"...@@@@@@@@@+@@@@...",
"...@@@@@@@@@@@@@@...",
"...@@@@@@@@@@@@@@...",
"...@@@@@@@@@@@@@@...",
"...@@@@@@@@@@@@@@...",
"....................",
"....................",
"...................."};
