/* XPM */
static char * bypass_active_xpm[] = {
"20 20 44 1",
" 	c None",
".	c #DDCD7C",
"+	c #DEC377",
"@	c #DFB872",
"#	c #DDCA7B",
"$	c #DDCC7C",
"%	c #E8674E",
"&	c #ED3C3A",
"*	c #EC403C",
"=	c #E77252",
"-	c #ED3838",
";	c #E8694E",
">	c #E39161",
",	c #ED3939",
"'	c #EC3D3A",
")	c #ED3938",
"!	c #E67A56",
"~	c #EB4940",
"{	c #E5825A",
"]	c #DFB772",
"^	c #E0B26F",
"/	c #E77353",
"(	c #E95947",
"_	c #DDCC7B",
":	c #E1A86B",
"<	c #DEC176",
"[	c #E76D50",
"}	c #EC453E",
"|	c #EC3F3B",
"1	c #EB473F",
"2	c #E0B471",
"3	c #DEC579",
"4	c #E57F58",
"5	c #E5855B",
"6	c #DEC277",
"7	c #E77253",
"8	c #DFBD75",
"9	c #E77453",
"0	c #E67755",
"a	c #E48A5E",
"b	c #E1A66A",
"c	c #DFBE75",
"d	c #E39462",
"e	c #E1AA6C",
"....................",
"....................",
"....................",
"..............+@....",
".....#.$%&*=..-;....",
"....#.>,----')-!....",
".....>,~{]^/--(_....",
"....$,~:..<[}|12....",
"....%-{.3.--.4&5....",
"....&-]..)-!.6)=....",
"....*-^<--7..8)9....",
"....=-/[-!...0'a....",
".....'-}....b&-c....",
".....)-|4680&-d.....",
"...6--(1&))'-d......",
"...e;!_25=9ac.......",
"....................",
"....................",
"....................",
"...................."};
