/* XPM */
static char * bypass_normal_xpm[] = {
"20 20 42 1",
" 	c None",
".	c #3C5572",
"+	c #48536E",
"@	c #55516A",
"#	c #3F5471",
"$	c #3D5572",
"%	c #B5414A",
"&	c #E8393A",
"*	c #E33A3B",
"=	c #A8434F",
"-	c #ED3838",
";	c #B3414B",
">	c #83495B",
",	c #EC3838",
"'	c #E7393A",
")	c #9F4552",
"!	c #D93B3F",
"~	c #964655",
"{	c #565169",
"]	c #5D5067",
"^	c #A7434F",
"/	c #C63E45",
"(	c #684E64",
"_	c #4B536D",
":	c #AE424D",
"<	c #DD3B3D",
"[	c #E5393B",
"}	c #DB3B3E",
"|	c #5A5068",
"1	c #45546F",
"2	c #994654",
"3	c #914756",
"4	c #4F526C",
"5	c #A6444F",
"6	c #A24451",
"7	c #8B4858",
"8	c #6A4D63",
"9	c #E93939",
"0	c #4D526C",
"a	c #804A5C",
"b	c #49536E",
"c	c #664E64",
"....................",
"....................",
"....................",
"..............+@....",
".....#.$%&*=..-;....",
"....#.>,----',-)....",
".....>,!~{]^--/$....",
"....$,!(.._:<[}|....",
"....%-~.1.--.2&3....",
"....&-{..,-).+,=....",
"....*-]_--=..4,5....",
"....=-^:-)...6'7....",
".....'-<....89-0....",
".....,-[2+469-a.....",
"...b--/}&,,'-a......",
"...c;)$|3=570.......",
"....................",
"....................",
"....................",
"...................."};
