/* XPM */
static char * bypass_disabled_xpm[] = {
"20 20 39 1",
" 	c None",
".	c #485461",
"+	c #505561",
"@	c #565560",
"#	c #4A5461",
"$	c #495461",
"%	c #925D62",
"&	c #B76264",
"*	c #B36264",
"=	c #885B61",
"-	c #BA6363",
";	c #915C61",
">	c #70575F",
",	c #B66365",
"'	c #835A61",
")	c #AC6164",
"!	c #7D585F",
"~	c #575560",
"{	c #59535E",
"]	c #9E5F63",
"^	c #5E535C",
"/	c #525561",
"(	c #8D5C62",
"_	c #AF6264",
":	c #B56264",
"<	c #AE6163",
"[	c #58545F",
"}	c #4E5561",
"|	c #7E5960",
"1	c #79585F",
"2	c #545661",
"3	c #875C61",
"4	c #855A60",
"5	c #74575E",
"6	c #5F525C",
"7	c #B86363",
"8	c #535560",
"9	c #6F565F",
"0	c #5D525C",
"....................",
"....................",
"....................",
"..............+@....",
".....#.$%&*=..-;....",
"....#.>-----,--'....",
".....>-)!~{=--]$....",
"....$-)^../(_:<[....",
"....%-!.}.--.|&1....",
"....&-~..--'.+-=....",
"....*-{/--=..2-3....",
"....=-=(-'...4,5....",
".....,-_....67-8....",
".....--:|+247-9.....",
"...+--]<&--,-9......",
"...0;'$[1=358.......",
"....................",
"....................",
"....................",
"...................."};
