/* XPM */
static char * bypass_focus_xpm[] = {
"20 20 46 1",
" 	c None",
".	c #5A80AA",
"+	c #647BA2",
"@	c #6F769A",
"#	c #5D7FA8",
"$	c #5B80AA",
"%	c #BE4F5C",
"&	c #E93A3B",
"*	c #E53C3E",
"=	c #B45464",
"-	c #ED3838",
";	c #BD4F5D",
">	c #95637C",
",	c #EC3939",
"'	c #E83A3C",
")	c #EC3838",
"!	c #AC586B",
"~	c #DC4045",
"{	c #A45C70",
"]	c #707599",
"^	c #757395",
"/	c #B35565",
"(	c #CD4851",
"_	c #5B7FA9",
":	c #7E6E8E",
"<	c #667AA1",
"[	c #B95261",
"}	c #E03E42",
"|	c #E63B3D",
"1	c #DE3F44",
"2	c #737497",
"3	c #617CA4",
"4	c #A75A6E",
"5	c #A15D73",
"6	c #B35465",
"7	c #6A789D",
"8	c #B25566",
"9	c #AF5668",
"0	c #E83B3C",
"a	c #9C6077",
"b	c #806D8C",
"c	c #EA3A3B",
"d	c #68799F",
"e	c #92647E",
"f	c #657BA2",
"g	c #7D6F8F",
"....................",
"....................",
"....................",
"..............+@....",
".....#.$%&*=..-;....",
"....#.>,----')-!....",
".....>,~{]^/--(_....",
"....$,~:..<[}|12....",
"....%-{.3.--.4&5....",
"....&-]..)-!.+)=....",
"....*-^<--6..7)8....",
"....=-/[-!...90a....",
".....'-}....bc-d....",
".....)-|4+79c-e.....",
"...f--(1&))0-e......",
"...g;!_25=8ad.......",
"....................",
"....................",
"....................",
"...................."};
