/* XPM */
static char * gridsnap_normal_xpm[] = {
"20 20 4 1",
" 	c None",
".	c #3C5572",
"+	c #C48200",
"@	c #88AD82",
"....................",
"....................",
"....................",
"....................",
"+...................",
"++..@@@@@@@@@@@@....",
"+++.@..........@....",
"++++@..........@...+",
"+++++@@@@@@@@@@@..++",
"++++@..........@.+++",
"+++.@..........@++++",
"++..@@@@@@@@@@@+++++",
"+...@..........@++++",
"....@..........@.+++",
"....@@@@@@@@@@@@..++",
"...................+",
"....................",
"....................",
"....................",
"...................."};
