/* XPM */
static char * grid_focus_xpm[] = {
"20 20 3 1",
" 	c None",
".	c #5A80AA",
"+	c #88AD82",
"....................",
"....................",
"....................",
"....................",
"....................",
"....++++++++++++....",
"....+..........+....",
"....+..........+....",
"....++++++++++++....",
"....+..........+....",
"....+..........+....",
"....++++++++++++....",
"....+..........+....",
"....+..........+....",
"....++++++++++++....",
"....................",
"....................",
"....................",
"....................",
"...................."};
