/* XPM */
static char * lineplot_selected_xpm[] = {
"20 20 5 1",
" 	c None",
".	c #7A9BBD",
"+	c #000000",
"@	c #FFFFFF",
"#	c #147878",
"....................",
"....................",
"....................",
"...++++++++++++++...",
"...++++++++++++++...",
"...++++++++++++++...",
"...++++++@@++++++...",
"...@+@+++@@+++++@...",
"...@+@++@#@+++++@...",
"...@+@++@##@+++@#...",
"...#@#@@###@++@##...",
"...#@#@@###@++@##...",
"...#@#@#####@+@##...",
"...#########@@###...",
"...##########@###...",
"...##########@###...",
"...##############...",
"....................",
"....................",
"...................."};
