/* XPM */
static char * link_active_xpm[] = {
"20 20 68 1",
" 	c None",
".	c #DDCD7C",
"+	c #D4C577",
"@	c #C7B970",
"#	c #D5C577",
"$	c #6D6642",
"%	c #4C4C4C",
"&	c #474746",
"*	c #83794B",
"=	c #D6C679",
"-	c #7F7855",
";	c #454545",
">	c #363635",
",	c #C2B46E",
"'	c #313133",
")	c #CDCDCE",
"!	c #C4C4C4",
"~	c #C5C5C6",
"{	c #BABABA",
"]	c #020204",
"^	c #C2B46D",
"/	c #ADA063",
"(	c #4D4D4E",
"_	c #ADADAC",
":	c #C7C7C7",
"<	c #D2D2D2",
"[	c #515152",
"}	c #000000",
"|	c #14120B",
"1	c #2D2A1C",
"2	c #7C7347",
"3	c #C8BA70",
"4	c #5A5A5A",
"5	c #FFFFFF",
"6	c #F2F2F3",
"7	c #6F6F70",
"8	c #D6C988",
"9	c #16140F",
"0	c #837A4B",
"a	c #736B42",
"b	c #262627",
"c	c #7A7A7B",
"d	c #7B7B7C",
"e	c #6A6A6B",
"f	c #333334",
"g	c #6B6B6C",
"h	c #565657",
"i	c #555556",
"j	c #505052",
"k	c #4C462C",
"l	c #413C27",
"m	c #212121",
"n	c #535354",
"o	c #555557",
"p	c #535355",
"q	c #C9BA71",
"r	c #646258",
"s	c #C0C0C0",
"t	c #BEBEBF",
"u	c #ACACAD",
"v	c #C4B66F",
"w	c #5C5A53",
"x	c #B9B9BA",
"y	c #BABABB",
"z	c #B5B5B7",
"A	c #81784A",
"B	c #DCCC7C",
"C	c #7E7548",
"....................",
"....................",
"....................",
"....................",
"....................",
"...+@@@@...+@@@@....",
"..#$%%%&*.=-;%%>*...",
"..,')!~{]^/(_:<<[,..",
"..%)]]]}}}}}|]]1)%..",
"..%)2.3455567.38)%..",
"..%)90abcdcef*ag)%..",
"..&)hhij]klmnopp)&..",
"..qrsstu].vwxyzz[q..",
"...A]]]]..BC]]]]....",
"....................",
"....................",
"....................",
"....................",
"....................",
"...................."};
