/* XPM */
static char * link_selected_xpm[] = {
"20 20 68 1",
" 	c None",
".	c #7A9BBD",
"+	c #7595B6",
"@	c #6E8CAA",
"#	c #41505F",
"$	c #4C4C4C",
"%	c #474746",
"&	c #495C71",
"*	c #7796B7",
"=	c #546272",
"-	c #454545",
";	c #363635",
">	c #6C89A7",
",	c #313133",
"'	c #CDCDCE",
")	c #C4C4C4",
"!	c #C5C5C6",
"~	c #BABABA",
"{	c #020204",
"]	c #6B88A6",
"^	c #617A95",
"/	c #4D4D4E",
"(	c #ADADAC",
"_	c #C7C7C7",
":	c #D2D2D2",
"<	c #515152",
"[	c #6D8AA8",
"}	c #000000",
"|	c #0B0E11",
"1	c #1A2028",
"2	c #45576B",
"3	c #6F8CAB",
"4	c #5A5A5A",
"5	c #FFFFFF",
"6	c #F2F2F3",
"7	c #6F6F70",
"8	c #87A1BC",
"9	c #0D1015",
"0	c #495D71",
"a	c #415264",
"b	c #262627",
"c	c #7A7A7B",
"d	c #7B7B7C",
"e	c #6A6A6B",
"f	c #333334",
"g	c #6B6B6C",
"h	c #565657",
"i	c #555556",
"j	c #505052",
"k	c #2A3642",
"l	c #252E39",
"m	c #1F2022",
"n	c #535354",
"o	c #555557",
"p	c #535355",
"q	c #6F8DAC",
"r	c #565B60",
"s	c #C0C0C0",
"t	c #BEBEBF",
"u	c #ACACAD",
"v	c #51545A",
"w	c #B9B9BA",
"x	c #BABABB",
"y	c #B5B5B7",
"z	c #819CB7",
"A	c #485B6F",
"B	c #7A9ABC",
"C	c #46586C",
"....................",
"....................",
"....................",
"....................",
"....................",
"...+@@@@...+@@@@....",
"..+#$$$%&.*=-$$;&...",
"..>,')!~{]^/(_::<...",
"..['{{{}}}}}|{{1'...",
"..>'2.3455567.38'...",
"..>'90abcdcef&ag'...",
"..>'hhij{klmnopp'...",
"..qrsstu{.[vwxyyz...",
"...A{{{{..BC{{{{....",
"....................",
"....................",
"....................",
"....................",
"....................",
"...................."};
