/* XPM */
static char * link_disabled_xpm[] = {
"20 20 58 1",
" 	c None",
".	c #444D57",
"+	c #414A54",
"@	c #3D454E",
"#	c #272B30",
"$	c #444444",
"%	c #3E3E3E",
"&	c #282D33",
"*	c #424B55",
"=	c #383C41",
"-	c #3D3D3D",
";	c #2F2F2F",
">	c #3C444D",
",	c #2B2B2C",
"'	c #B8B8B8",
")	c #B0B0B0",
"!	c #A7A7A7",
"~	c #010102",
"{	c #3B434C",
"]	c #363D45",
"^	c #454545",
"/	c #9A9A9A",
"(	c #B2B2B2",
"_	c #BCBCBC",
":	c #484848",
"<	c #000000",
"[	c #050606",
"}	c #0E1013",
"|	c #262B31",
"1	c #505050",
"2	c #E5E5E5",
"3	c #D8D8D9",
"4	c #636363",
"5	c #575E66",
"6	c #080809",
"7	c #292E34",
"8	c #25292E",
"9	c #212122",
"0	c #6D6D6D",
"a	c #6E6E6E",
"b	c #5F5F5F",
"c	c #2D2D2D",
"d	c #606060",
"e	c #4D4D4D",
"f	c #4C4C4C",
"g	c #474748",
"h	c #171A1E",
"i	c #15171A",
"j	c #1A1A1B",
"k	c #4A4A4A",
"l	c #4A4A4B",
"m	c #47494A",
"n	c #ACACAC",
"o	c #AAAAAA",
"p	c #434446",
"q	c #A6A6A6",
"r	c #A2A2A3",
"s	c #525961",
"....................",
"....................",
"....................",
"....................",
"....................",
"...+@@@@...+@@@@....",
"..+#$$$%&.*=-$$;&...",
"..>,'))!~{]^/(__:...",
"..@'~~~<<<<<[~~}'...",
"..>'|.@122234.@5'...",
"..@'67890a0bc78d'...",
"..@'eefg~hijkell'...",
"..@mnno/~.@pq!rrs...",
"...&~~~~...|~~~~....",
"....................",
"....................",
"....................",
"....................",
"....................",
"...................."};
