/* XPM */
static char * link_normal_xpm[] = {
"20 20 69 1",
" 	c None",
".	c #3C5572",
"+	c #3A526E",
"@	c #364D67",
"#	c #26313E",
"$	c #4C4C4C",
"%	c #474746",
"&	c #243345",
"*	c #3B536F",
"=	c #394451",
"-	c #454545",
";	c #363635",
">	c #354B65",
",	c #313133",
"'	c #CDCDCE",
")	c #C4C4C4",
"!	c #C5C5C6",
"~	c #BABABA",
"{	c #020204",
"]	c #354B64",
"^	c #31455B",
"/	c #4D4D4E",
"(	c #ADADAC",
"_	c #C7C7C7",
":	c #D2D2D2",
"<	c #515152",
"[	c #364C66",
"}	c #000000",
"|	c #05080A",
"1	c #0D121A",
"2	c #364C65",
"3	c #223041",
"4	c #5A5A5A",
"5	c #FFFFFF",
"6	c #F2F2F3",
"7	c #6F6F70",
"8	c #556980",
"9	c #080A0E",
"0	c #253446",
"a	c #212E3D",
"b	c #262627",
"c	c #7A7A7B",
"d	c #7B7B7C",
"e	c #6A6A6B",
"f	c #333334",
"g	c #253345",
"h	c #6B6B6C",
"i	c #565657",
"j	c #555556",
"k	c #505052",
"l	c #161E29",
"m	c #131A24",
"n	c #1E1F21",
"o	c #535354",
"p	c #555557",
"q	c #535355",
"r	c #374E68",
"s	c #4E5256",
"t	c #C0C0C0",
"u	c #BEBEBF",
"v	c #ACACAD",
"w	c #374D66",
"x	c #494C51",
"y	c #B9B9BA",
"z	c #BABABB",
"A	c #B5B5B7",
"B	c #50647B",
"C	c #243244",
"D	c #233142",
"....................",
"....................",
"....................",
"....................",
"....................",
"...+@@@@...+@@@@....",
"..+#$$$%&.*=-$$;&...",
"..>,')!~{]^/(_::<...",
"..['{{{}}}}}|{{1'...",
"..2'3.@455567.@8'...",
"..['90abcdcefgah'...",
"..['iijk{lmnopqq'...",
"..rsttuv{.wxyzAAB...",
"...C{{{{...D{{{{....",
"....................",
"....................",
"....................",
"....................",
"....................",
"...................."};
