/* XPM */
static char * link_focus_xpm[] = {
"20 20 70 1",
" 	c None",
".	c #5A80AA",
"+	c #567BA3",
"@	c #517399",
"#	c #577BA4",
"$	c #334456",
"%	c #4C4C4C",
"&	c #474746",
"*	c #364C66",
"=	c #587CA5",
"-	c #46576A",
";	c #454545",
">	c #363635",
",	c #507196",
"'	c #313133",
")	c #CDCDCE",
"!	c #C4C4C4",
"~	c #C5C5C6",
"{	c #BABABA",
"]	c #020204",
"^	c #4F7095",
"/	c #486586",
"(	c #4D4D4E",
"_	c #ADADAC",
":	c #C7C7C7",
"<	c #D2D2D2",
"[	c #515152",
"}	c #517297",
"|	c #000000",
"1	c #080C0F",
"2	c #131B25",
"3	c #334860",
"4	c #52749A",
"5	c #5A5A5A",
"6	c #FFFFFF",
"7	c #F2F2F3",
"8	c #6F6F70",
"9	c #6D8BAD",
"0	c #507297",
"a	c #0B0E13",
"b	c #374D66",
"c	c #30445A",
"d	c #262627",
"e	c #7A7A7B",
"f	c #7B7B7C",
"g	c #6A6A6B",
"h	c #333334",
"i	c #6B6B6C",
"j	c #565657",
"k	c #555556",
"l	c #505052",
"m	c #202C3C",
"n	c #1C2634",
"o	c #1F2022",
"p	c #535354",
"q	c #555557",
"r	c #535355",
"s	c #52759B",
"t	c #52575E",
"u	c #C0C0C0",
"v	c #BEBEBF",
"w	c #ACACAD",
"x	c #4D5158",
"y	c #B9B9BA",
"z	c #BABABB",
"A	c #B5B5B7",
"B	c #6886A8",
"C	c #354B64",
"D	c #5A80A9",
"E	c #344962",
"....................",
"....................",
"....................",
"....................",
"....................",
"...+@@@@...+@@@@....",
"..#$%%%&*.=-;%%>*...",
"..,')!~{]^/(_:<<[...",
"..})]]]|||||1]]2)...",
"..,)3.4566678.49)...",
"..0)abcdefegh*ci)...",
"..0)jjkl]mnopqrr)...",
"..stuuvw].}xyzAAB...",
"...C]]]]..DE]]]]....",
"....................",
"....................",
"....................",
"....................",
"....................",
"...................."};
