/* XPM */
static char * specplot_normal_xpm[] = {
"20 20 59 1",
" 	c None",
".	c #3C5572",
"+	c #458975",
"@	c #2E648B",
"#	c #3B7D85",
"$	c #336D8B",
"%	c #30688B",
"&	c #25518D",
"*	c #3F827E",
"=	c #3A7B87",
"-	c #468A72",
";	c #3D7F83",
">	c #397A8A",
",	c #428579",
"'	c #4A8F6C",
")	c #35728A",
"!	c #41847C",
"~	c #488C70",
"{	c #438777",
"]	c #498E6E",
"^	c #4D9367",
"/	c #549B5B",
"(	c #509662",
"_	c #519860",
":	c #59A252",
"<	c #579E57",
"[	c #4E9465",
"}	c #86A636",
"|	c #A6A823",
"1	c #76A63F",
"2	c #91A730",
"3	c #9CA729",
"4	c #71A542",
"5	c #8CA733",
"6	c #559D59",
"7	c #81A639",
"8	c #66A548",
"9	c #C1A914",
"0	c #96A72D",
"a	c #B6A81A",
"b	c #CCA90E",
"c	c #BCA917",
"d	c #B1A81D",
"e	c #3E8080",
"f	c #2A5A8C",
"g	c #52995E",
"h	c #E99002",
"i	c #5CA54F",
"j	c #6CA545",
"k	c #58A054",
"l	c #4C9169",
"m	c #1F428E",
"n	c #2C5F8C",
"o	c #234C8E",
"p	c #28558D",
"q	c #1C3D8F",
"r	c #1A398F",
"s	c #21478E",
"t	c #142A91",
"....................",
"....................",
"....................",
"...+@#$%&%*=-=;>,...",
"...'#%$@)!)=!+-#-...",
"...,**~!{];=]!!>=...",
"...^/(_::_-/<'[/]...",
"...}|1213|24}5678...",
"...93751703abc9da...",
"...!!&%#,)ee!*[>f...",
"...:g+(&[)%e;;8!=...",
"...h3i}j/:6/k81g]...",
"...lfm>f%nmfo+=%%...",
"...l)m@p#%q@r+e&q...",
"...(-^78'l[6{[6!{...",
"..._erst$)&%p{'$=...",
"...({pos@-o=m=~%&...",
"....................",
"....................",
"...................."};
