/* XPM */
static char * ftlogo_xpm[] = {
"70 40 752 2",
"  	c None",
". 	c #D6D6D6",
"+ 	c #BBBBBB",
"@ 	c #8B8B8B",
"# 	c #B0B0B0",
"$ 	c #C3C3C3",
"% 	c #4C4D4C",
"& 	c #0D130D",
"* 	c #0F190F",
"= 	c #727272",
"- 	c #C9C9C9",
"; 	c #222522",
"> 	c #142114",
", 	c #666D0B",
"' 	c #5E6408",
") 	c #545554",
"! 	c #1B2712",
"~ 	c #677625",
"{ 	c #53849C",
"] 	c #6B9484",
"^ 	c #CACACA",
"/ 	c #121812",
"( 	c #394B24",
"_ 	c #5A8B98",
": 	c #447493",
"< 	c #27383F",
"[ 	c #848484",
"} 	c #CECECE",
"| 	c #959595",
"1 	c #7A7A7A",
"2 	c #D1D1D1",
"3 	c #D2D2D2",
"4 	c #A3A3A3",
"5 	c #797979",
"6 	c #717171",
"7 	c #909090",
"8 	c #C7C7C7",
"9 	c #A1A1A1",
"0 	c #737373",
"a 	c #969696",
"b 	c #CCCCCC",
"c 	c #AEAEAE",
"d 	c #0E170D",
"e 	c #496349",
"f 	c #548BAC",
"g 	c #253942",
"h 	c #BABABA",
"i 	c #B3B3B3",
"j 	c #212321",
"k 	c #152315",
"l 	c #0E150E",
"m 	c #C6C6C6",
"n 	c #B4B4B4",
"o 	c #2D2F2D",
"p 	c #0D160D",
"q 	c #101B10",
"r 	c #151A15",
"s 	c #838383",
"t 	c #ADADAD",
"u 	c #2A2C2A",
"v 	c #1C1F1C",
"w 	c #AAAAAA",
"x 	c #172110",
"y 	c #6B9892",
"z 	c #343E43",
"A 	c #C8C8C8",
"B 	c #1C1E1C",
"C 	c #172717",
"D 	c #192919",
"E 	c #0F170F",
"F 	c #B5B5B5",
"G 	c #172617",
"H 	c #182818",
"I 	c #182918",
"J 	c #0E170E",
"K 	c #7C7C7C",
"L 	c #B1B1B1",
"M 	c #1B1E11",
"N 	c #223015",
"O 	c #1D2E18",
"P 	c #0C140C",
"Q 	c #898989",
"R 	c #47562E",
"S 	c #6199B7",
"T 	c #305164",
"U 	c #2A3D46",
"V 	c #7A7A79",
"W 	c #121E11",
"X 	c #263516",
"Y 	c #1A210D",
"Z 	c #383A38",
"` 	c #162616",
" .	c #142214",
"..	c #212421",
"+.	c #444544",
"@.	c #0F160F",
"#.	c #243416",
"$.	c #26290E",
"%.	c #C2C2C2",
"&.	c #D3D3D3",
"*.	c #30363A",
"=.	c #789354",
"-.	c #7C954E",
";.	c #89941F",
">.	c #1A2715",
",.	c #141814",
"'.	c #25445E",
").	c #4C82A6",
"!.	c #52839D",
"~.	c #4F5049",
"{.	c #64752E",
"].	c #243316",
"^.	c #37390C",
"/.	c #414137",
"(.	c #A6A6A6",
"_.	c #323506",
":.	c #3D4912",
"<.	c #161A16",
"[.	c #B8B8B8",
"}.	c #545454",
"|.	c #182614",
"1.	c #536833",
"2.	c #43666E",
"3.	c #7A7B7B",
"4.	c #ACACAC",
"5.	c #294456",
"6.	c #5B92B2",
"7.	c #4A80A4",
"8.	c #3D5A5E",
"9.	c #585855",
"0.	c #686868",
"a.	c #0F150F",
"b.	c #8D8D8D",
"c.	c #42494C",
"d.	c #779D7A",
"e.	c #7F8713",
"f.	c #545B11",
"g.	c #858585",
"h.	c #445F54",
"i.	c #82A164",
"j.	c #767E11",
"k.	c #4E4E45",
"l.	c #646464",
"m.	c #121C0E",
"n.	c #738023",
"o.	c #5E8A88",
"p.	c #467798",
"q.	c #575859",
"r.	c #436C83",
"s.	c #477A9C",
"t.	c #404447",
"u.	c #D7D7D7",
"v.	c #D8D8D8",
"w.	c #5E5E5E",
"x.	c #152415",
"y.	c #162516",
"z.	c #666666",
"A.	c #3D6884",
"B.	c #345363",
"C.	c #538AAC",
"D.	c #4D82A7",
"E.	c #446A7C",
"F.	c #A0A0A0",
"G.	c #8F8F8F",
"H.	c #325772",
"I.	c #5E97B5",
"J.	c #558AA8",
"K.	c #42474B",
"L.	c #353835",
"M.	c #424333",
"N.	c #41494D",
"O.	c #3F484D",
"P.	c #3D454C",
"Q.	c #777777",
"R.	c #878787",
"S.	c #436D83",
"T.	c #487B9D",
"U.	c #3D4145",
"V.	c #7F7F7F",
"W.	c #5A5A5A",
"X.	c #303B42",
"Y.	c #A5A5A5",
"Z.	c #C0C0C0",
"`.	c #AFAFAF",
" +	c #1E374C",
".+	c #588FB0",
"++	c #233540",
"@+	c #B2B2B2",
"#+	c #D4D4D4",
"$+	c #ABABAB",
"%+	c #3B5D6F",
"&+	c #4E4F4F",
"*+	c #5B5B5B",
"=+	c #70706F",
"-+	c #1D2A16",
";+	c #384248",
">+	c #2F3439",
",+	c #598DAA",
"'+	c #47789A",
")+	c #293D48",
"!+	c #27363F",
"~+	c #1F2D34",
"{+	c #2F3539",
"]+	c #5388A6",
"^+	c #5B93B2",
"/+	c #5386A2",
"(+	c #263E4C",
"_+	c #6C6C6B",
":+	c #747E21",
"<+	c #636C10",
"[+	c #1C2C17",
"}+	c #A8A8A8",
"|+	c #233541",
"1+	c #5186A5",
"2+	c #5E97B6",
"3+	c #578EAF",
"4+	c #47789B",
"5+	c #2C373B",
"6+	c #C1C1C1",
"7+	c #20303B",
"8+	c #46779A",
"9+	c #2D4958",
"0+	c #6C6C6C",
"a+	c #45718C",
"b+	c #69907A",
"c+	c #818E23",
"d+	c #1B3245",
"e+	c #487288",
"f+	c #3E6780",
"g+	c #373E42",
"h+	c #3F4548",
"i+	c #3E667F",
"j+	c #39617C",
"k+	c #324F5C",
"l+	c #252E35",
"m+	c #2C4C63",
"n+	c #50819B",
"o+	c #4E7F9B",
"p+	c #355A73",
"q+	c #222F35",
"r+	c #282F36",
"s+	c #36586B",
"t+	c #4D7E99",
"u+	c #294251",
"v+	c #5B91B0",
"w+	c #9E9E9E",
"x+	c #C5C5C5",
"y+	c #CFCFCF",
"z+	c #949494",
"A+	c #68696A",
"B+	c #656666",
"C+	c #D0D0D0",
"D+	c #929292",
"E+	c #676869",
"F+	c #626363",
"G+	c #747474",
"H+	c #666460",
"I+	c #65625B",
"J+	c #70706D",
"K+	c #707072",
"L+	c #5F5B65",
"M+	c #5C5B65",
"N+	c #5D5D64",
"O+	c #B9B9B9",
"P+	c #603F03",
"Q+	c #B18D00",
"R+	c #B37B00",
"S+	c #473414",
"T+	c #211745",
"U+	c #5600B3",
"V+	c #2300B3",
"W+	c #180062",
"X+	c #684002",
"Y+	c #C29906",
"Z+	c #C67C02",
"`+	c #4A2113",
" @	c #2C495A",
".@	c #30546B",
"+@	c #3B5F73",
"@@	c #49173B",
"#@	c #C60083",
"$@	c #C30092",
"%@	c #5E006B",
"&@	c #683002",
"*@	c #C48A04",
"=@	c #C86800",
"-@	c #4A2513",
";@	c #B7B7B7",
">@	c #261741",
",@	c #4C00AB",
"'@	c #3D00A1",
")@	c #20006A",
"!@	c #672A05",
"~@	c #C84C02",
"{@	c #C85904",
"]@	c #4D0E0C",
"^@	c #9A9A9A",
"/@	c #888888",
"(@	c #BCBCBC",
"_@	c #626161",
":@	c #472A35",
"<@	c #471A2B",
"[@	c #483540",
"}@	c #7B7B7B",
"|@	c #5A5758",
"1@	c #442434",
"2@	c #471B25",
"3@	c #4A3536",
"4@	c #2D1746",
"5@	c #5900C3",
"6@	c #4800C8",
"7@	c #23006B",
"8@	c #554C54",
"9@	c #544756",
"0@	c #544755",
"a@	c #575657",
"b@	c #682C05",
"c@	c #C83103",
"d@	c #C81606",
"e@	c #B90706",
"f@	c #9A2200",
"g@	c #625A58",
"h@	c #7F1100",
"i@	c #A71F05",
"j@	c #A11306",
"k@	c #564743",
"l@	c #B6B6B6",
"m@	c #5E0A17",
"n@	c #A7051E",
"o@	c #A7012A",
"p@	c #431B2F",
"q@	c #461622",
"r@	c #A70029",
"s@	c #A70026",
"t@	c #5E031F",
"u@	c #410A14",
"v@	c #A3031F",
"w@	c #C32019",
"x@	c #C7111C",
"y@	c #C00631",
"z@	c #89110A",
"A@	c #3B2620",
"B@	c #BEBEBE",
"C@	c #4D1005",
"D@	c #AB2912",
"E@	c #C4291F",
"F@	c #C7220F",
"G@	c #C03605",
"H@	c #92120D",
"I@	c #3A1616",
"J@	c #4A1729",
"K@	c #C70060",
"L@	c #B40085",
"M@	c #5F0054",
"N@	c #615E5F",
"O@	c #9B005E",
"P@	c #B7007B",
"Q@	c #8D005E",
"R@	c #625F63",
"S@	c #681E07",
"T@	c #C82306",
"U@	c #C81625",
"V@	c #C80E35",
"W@	c #B63100",
"X@	c #635B58",
"Y@	c #931601",
"Z@	c #C83607",
"`@	c #BE0632",
" #	c #574643",
".#	c #6E081C",
"+#	c #C81638",
"@#	c #C8093A",
"##	c #491A2F",
"$#	c #4A161D",
"%#	c #C80829",
"&#	c #C80114",
"*#	c #6B0210",
"=#	c #4F0A09",
"-#	c #C4080E",
";#	c #C82606",
">#	c #A42000",
",#	c #843C00",
"'#	c #A82608",
")#	c #C73018",
"!#	c #B54013",
"~#	c #3C2B2E",
"{#	c #8E8D8E",
"]#	c #621713",
"^#	c #BA141D",
"/#	c #C00F1E",
"(#	c #C31620",
"_#	c #C32E1B",
":#	c #C2361B",
"<#	c #BD361B",
"[#	c #B0072B",
"}#	c #371C2E",
"|#	c #461731",
"1#	c #B90074",
"2#	c #B20079",
"3#	c #5E004D",
"4#	c #39093C",
"5#	c #A800B1",
"6#	c #AE00A2",
"7#	c #400A35",
"8#	c #BFBFBF",
"9#	c #63270C",
"0#	c #C85404",
"a#	c #C83120",
"b#	c #C82A0F",
"c#	c #B64500",
"d#	c #931F00",
"e#	c #C81D0F",
"f#	c #BE0631",
"g#	c #6E0211",
"h#	c #C80522",
"i#	c #C8004B",
"j#	c #491A31",
"k#	c #4A1D15",
"l#	c #C81B0D",
"m#	c #C8040F",
"n#	c #6B021D",
"o#	c #43323B",
"p#	c #B60049",
"q#	c #C8005C",
"r#	c #920031",
"s#	c #4F4748",
"t#	c #443745",
"u#	c #9C009D",
"v#	c #C600A0",
"w#	c #7E006A",
"x#	c #3A1936",
"y#	c #BB009B",
"z#	c #8300C8",
"A#	c #8B00C4",
"B#	c #670084",
"C#	c #5C0072",
"D#	c #8200AE",
"E#	c #7300C8",
"F#	c #6900C8",
"G#	c #3A0084",
"H#	c #27174A",
"I#	c #5F00C8",
"J#	c #3600C8",
"K#	c #1A0071",
"L#	c #464350",
"M#	c #2A0098",
"N#	c #2F00C8",
"O#	c #1D0099",
"P#	c #5E5E60",
"Q#	c #643106",
"R#	c #C85F00",
"S#	c #C8320B",
"T#	c #661504",
"U#	c #4A312B",
"V#	c #7A7676",
"W#	c #931200",
"X#	c #BE1009",
"Y#	c #574B43",
"Z#	c #6E0B09",
"`#	c #C80413",
" $	c #C8001F",
".$	c #491A29",
"+$	c #4A1F15",
"@$	c #C8121D",
"#$	c #C80024",
"$$	c #6B022A",
"%$	c #4E0137",
"&$	c #C70085",
"*$	c #C80066",
"=$	c #450C24",
"-$	c #666365",
";$	c #4E474B",
">$	c #8A006E",
",$	c #C60096",
"'$	c #BA006E",
")$	c #50414B",
"!$	c #680053",
"~$	c #C00097",
"{$	c #AC00B5",
"]$	c #48035A",
"^$	c #37263E",
"/$	c #9900A0",
"($	c #A300BD",
"_$	c #7C00B4",
":$	c #524956",
"<$	c #3F1748",
"[$	c #A900B5",
"}$	c #9D00B1",
"|$	c #570074",
"1$	c #362B49",
"2$	c #8B0098",
"3$	c #A200A7",
"4$	c #64005F",
"5$	c #604E08",
"6$	c #C85700",
"7$	c #C85500",
"8$	c #46210C",
"9$	c #931700",
"0$	c #C81C00",
"a$	c #BE2801",
"b$	c #574C43",
"c$	c #6E1500",
"d$	c #C80C0E",
"e$	c #C80806",
"f$	c #491A1F",
"g$	c #4A2715",
"h$	c #C8151F",
"i$	c #C80617",
"j$	c #6B022C",
"k$	c #700024",
"l$	c #C80069",
"m$	c #C80048",
"n$	c #4A213A",
"o$	c #6D0045",
"p$	c #88004A",
"q$	c #980060",
"r$	c #9A0062",
"s$	c #920045",
"t$	c #412730",
"u$	c #939393",
"v$	c #7F0046",
"w$	c #AB008F",
"x$	c #99009B",
"y$	c #463745",
"z$	c #730057",
"A$	c #A9008C",
"B$	c #88008C",
"C$	c #3F2D43",
"D$	c #371734",
"E$	c #8D0077",
"F$	c #7B0081",
"G$	c #3D0040",
"H$	c #4D0134",
"I$	c #820855",
"J$	c #660055",
"K$	c #3B3A45",
"L$	c #523B08",
"M$	c #C85D00",
"N$	c #C84C00",
"O$	c #692200",
"P$	c #8A8A8A",
"Q$	c #CBCBCB",
"R$	c #932B01",
"S$	c #C85302",
"T$	c #BE1C14",
"U$	c #564B42",
"V$	c #6E1600",
"W$	c #C8220A",
"X$	c #C81208",
"Y$	c #491920",
"Z$	c #471A11",
"`$	c #C80533",
" %	c #C81611",
".%	c #6B0332",
"+%	c #600022",
"@%	c #C80073",
"#%	c #C8004E",
"$%	c #440E31",
"%%	c #9B9B9B",
"&%	c #9F9F9F",
"*%	c #680074",
"=%	c #8000C8",
"-%	c #6700C5",
";%	c #341D3F",
">%	c #CDCDCD",
",%	c #39007F",
"'%	c #3E00C8",
")%	c #322C4A",
"!%	c #1D174A",
"~%	c #3000C8",
"{%	c #1000BD",
"]%	c #000054",
"^%	c #1B123F",
"/%	c #2600C2",
"(%	c #0100B3",
"_%	c #05034D",
":%	c #3B3421",
"<%	c #C55200",
"[%	c #C83005",
"}%	c #C30330",
"|%	c #6F1702",
"1%	c #544E49",
"2%	c #989898",
"3%	c #823503",
"4%	c #C87401",
"5%	c #C51A08",
"6%	c #422B10",
"7%	c #453D3C",
"8%	c #980705",
"9%	c #C84209",
"0%	c #C8040E",
"a%	c #5D031B",
"b%	c #524F50",
"c%	c #69012C",
"d%	c #C80155",
"e%	c #C8071A",
"f%	c #600337",
"g%	c #3A1125",
"h%	c #C5006A",
"i%	c #C80094",
"j%	c #8D005D",
"k%	c #565153",
"l%	c #6E6E6E",
"m%	c #3C0445",
"n%	c #6B00C8",
"o%	c #61009A",
"p%	c #2F173D",
"q%	c #3B2F3E",
"r%	c #818181",
"s%	c #3E007F",
"t%	c #5300C8",
"u%	c #1900C1",
"v%	c #2D2C49",
"w%	c #25174A",
"x%	c #5500C8",
"y%	c #2600C7",
"z%	c #090066",
"A%	c #5A5A5F",
"B%	c #100099",
"C%	c #0F00BA",
"D%	c #040094",
"E%	c #5C5C60",
"F%	c #828282",
"G%	c #7A3200",
"H%	c #C80A2C",
"I%	c #C8013A",
"J%	c #BF4100",
"K%	c #55483E",
"L%	c #542103",
"M%	c #C87902",
"N%	c #C83909",
"O%	c #C19100",
"P%	c #B92906",
"Q%	c #C81809",
"R%	c #C83B00",
"S%	c #C8260E",
"T%	c #C50033",
"U%	c #B50333",
"V%	c #C70C1A",
"W%	c #C80828",
"X%	c #C51E0B",
"Y%	c #3C1624",
"Z%	c #787677",
"`%	c #80002C",
" &	c #C80074",
".&	c #9C004C",
"+&	c #7A004C",
"@&	c #7B0060",
"#&	c #5B555A",
"$&	c #D5D5D5",
"%&	c #5C585E",
"&&	c #7C0094",
"*&	c #A100C7",
"=&	c #9600C8",
"-&	c #A700C8",
";&	c #69006F",
">&	c #77007D",
",&	c #A600C8",
"'&	c #8B00C6",
")&	c #3C2C4A",
"!&	c #401745",
"~&	c #AC00B9",
"{&	c #B400C1",
"]&	c #4E006A",
"^&	c #A7A7A7",
"/&	c #59005E",
"(&	c #B300BF",
"_&	c #C000A1",
":&	c #3E0A37",
"<&	c #504946",
"[&	c #7E1205",
"}&	c #C40607",
"|&	c #BF6900",
"1&	c #554C3E",
"2&	c #4D4642",
"3&	c #A35601",
"4&	c #C82310",
"5&	c #C87500",
"6&	c #C82300",
"7&	c #BC1A00",
"8&	c #5A1305",
"9&	c #771A02",
"0&	c #C6011D",
"a&	c #C8071B",
"b&	c #C81502",
"c&	c #C70712",
"d&	c #750F02",
"e&	c #504247",
"f&	c #7F004E",
"g&	c #C60058",
"h&	c #C80053",
"i&	c #C600A3",
"j&	c #B300AC",
"k&	c #620061",
"l&	c #422C42",
"m&	c #67008F",
"n&	c #8400C8",
"o&	c #7800C8",
"p&	c #560072",
"q&	c #63007F",
"r&	c #9800C8",
"s&	c #6A00C7",
"t&	c #392C4A",
"u&	c #301747",
"v&	c #7600C2",
"w&	c #7000C5",
"x&	c #2C006A",
"y&	c #2C1E3A",
"z&	c #3600C1",
"A&	c #4300B2",
"B&	c #11007A",
"C&	c #7D7D7D",
"D&	c #7B7979",
"E&	c #391514",
"F&	c #5C2B00",
"G&	c #514942",
"H&	c #433835",
"I&	c #651301",
"J&	c #954A00",
"K&	c #781B00",
"L&	c #391C1B",
"M&	c #767373",
"N&	c #47090A",
"O&	c #8A0214",
"P&	c #8B020F",
"Q&	c #48050A",
"R&	c #6C6767",
"S&	c #797879",
"T&	c #39121F",
"U&	c #600028",
"V&	c #700056",
"W&	c #4D0246",
"X&	c #423342",
"Y&	c #6A686B",
"Z&	c #300C3A",
"`&	c #4D0060",
" *	c #420243",
".*	c #2F022E",
"+*	c #42014E",
"@*	c #3E014E",
"#*	c #3B343F",
"$*	c #2A1E31",
"%*	c #30014E",
"&*	c #25014E",
"**	c #10022B",
"=*	c #6A6A6B",
"-*	c #1E0248",
";*	c #1F014E",
">*	c #140249",
",*	c #292929",
"'*	c #868686",
")*	c #8C8C8C",
"                                                                                                                                            ",
"                                                                                                                                            ",
"                                                                                                                                            ",
"              . + @ #                                                                                                                       ",
"            $ % & * =                                                                                                                       ",
"          - ; > , ' =                                                                                                                       ",
"          ) ! ~ { ] =                                                                                                                       ",
"        ^ / ( _ : < [       } | = 1 2     3 4 5 6 7 8             3 9 5 0 a b                                                               ",
"        c d e f g h       i j * k l m   n o p > k q r s         t u p > k * v 7                                                             ",
"        w x y f z b 3   A B C D D E m F r G D H H I I J K     L M N O D D D H P Q                                                           ",
"        w R S f T U 5   V W D D X Y $ Z ` D  ...+.@.I #.$.%.&.*.=.-.;.>.k I D I ,.b                                                         ",
"        w '.S f ).!.=   ~.{.D ].^./.(._.:.D <.[.L }.|.1.2.3.4.5.6.7.8.9.0.a.D D q b.                                                        ",
"        w '.S f ).!.=   c.d.e.f.g.  7 h.i.j.k.l.p m.n.o.p.q.Q r.6.s.t.u.v.w.x.D y.z.                                                        ",
"        w '.S f A.B.=   c.C.D.E.F.  G.H.I.J.K.s L.M.N.O.P.Q.R.S.6.T.U.u.v.V.> D I W.                                                        ",
"        w '.S f X.Y.Z.  c.C.D.E.F.  `. +I..+++@+#+[.        $+5.6.7.%+&+*+=+-+D I W.                                                        ",
"        w '.S f ;+      c.C.D.E.F.  &.>+,+.+'+)+!+~+#       #+{+]+7.^+/+(+_+:+<+[+W.                                                        ",
"        w '.S f ;+      c.C.D.E.F.    }+|+1+7.2+3+4+5+6+      t 7+8+6.6.9+0+a+b+c+W.                                                        ",
"        w d+e+f+g+      h+i+j+k+F.      F.l+m+n+o+p+q+|         (.r+s+t+u+0+a+7.v+W.                                                        ",
"        8 b.b.b.w+      F.b.b.b.x+        y+z+A+B+[ m             C+D+E+F+G+a+7.v+W.                                                        ",
"        8 H+I+I+J+                                                        V.a+7.v+W.                        K+L+M+N+8                       ",
"        O+P+Q+R+S+                                                        V.a+7.v+W.                        T+U+V+W++                       ",
"        O+X+Y+Z+`+                                                        V. @.@+@W.                        @@#@$@%@+                       ",
"        O+&@*@=@-@                                                        6+F.F.F.;@                        >@,@'@)@+                       ",
"        O+!@~@{@]@5 9   ;@5 5 5 ^@- 5 5 5 /@  g.5 5 1 -       (@_@:@<@[@}@b           L |@1@2@3@G+8         4@5@6@7@+ (@8@9@0@a@&.          ",
"        O+b@c@d@e@f@g@  G.h@i@j@k@l@m@n@o@p@  q@r@s@t@;@    | u@v@w@x@y@z@A@B@      V.C@D@E@F@G@H@I@#       J@K@L@M@+ N@O@P@Q@R@            ",
"        O+S@T@U@V@W@X@  G.Y@Z@`@ #l@.#+#@###  $#%#&#*#;@  (.=#-#;#>#,#'#)#!#~#}   {#]#^#/#(#_#:#<#[#}#b     |#1#2#3#Y.4#5#6#7#8#            ",
"        O+9#0#a#b#c#X@  G.d#e#f# #l@g#h#i#j#  k#l#m#n#;@  o#p#q#r#s#^@t#u#v#w#[ #+x#y#z#A#B#C#D#E#F#G#[     H#I#J#K#L#M#N#O#P#              ",
"        O+Q#R#S#T#U#V#  G.W#e#X#Y#l@Z#`# $.$  +$@$#$$$;@A %$&$*$=$$+-$;$>$,$'$)$`.!$~${$]$V.}+^$/$($_$:$    <$[$}$|$1$2$3$4$D+              ",
"        O+5$6$7$8$      G.9$0$a$b$l@c$d$e$f$  g$h$i$j$;@`.k$l$m$n$s o$p$q$r$s$t$u$v$w$x$y$v.v.| z$A$B$C$    D$E$F$G$V.H$I$J$K$.             ",
"        x+L$M$N$O$P$Q$  G.R$S$T$U$n V$W$X$Y$  Z$`$ %.%;@h +%@%#%$%@+R.R.R.R.R.%%&%*%=%-%;%>%v.Y.,%F#'%)%    !%~%{%]%@+^%/%(%_%n             ",
"          :%<%[%}%|%1%  2%3%4%5%6%7%8%9%0%a%b%c%d%e%f%+ . g%h%i%j%k%9 l%2       A m%n%E#o%p%q%r%s%t%u%v%    w%x%y%z%+ A%B%C%D%E%            ",
"          F%G%H%I%J%K%  (@L%M%N%O%P%Q%R%S%T%U%V%W%X%Y%&.  Z%`% &i#.&+&@&#&$&      %&&&*&=&-&;&V.>&,&'&)&    !&~&{&]&+ ^&/&(&_&:&Q$          ",
"          #+<&[&}&|&1&  . 2&3&4&5&6&7&8&9&0&a&b&c&d&V.    3 e&f&g&h&i&j&k&}@      ^ l&m&n&o&p&V.q&r&s&t&    u&v&w&x&+ 3 y&z&A&B&C&          ",
"            3 D&E&F&G&    m H&I&J&K&L&(.M&N&O&P&Q&R&$&      3 S&T&U&V&W&X&w         b Y&Z&`& *V..*+*@*#*    $*%*&***+   =*-*;*>*,*#+        ",
"                  [.(@        w '*2%2     6+)*b.8#              . O+c 8                 $&[.`.3                                             ",
"                                                                                                                                            ",
"                                                                                                                                            ",
"                                                                                                                                            ",
"                                                                                                                                            ",
"                                                                                                                                            "};
